<svg width="35" height="35" xmlns="http://www.w3.org/2000/svg" xmlns:xlink="http://www.w3.org/1999/xlink" overflow="hidden"><defs><clipPath id="clip0"><rect x="401" y="547" width="35" height="35"/></clipPath></defs><g clip-path="url(#clip0)" transform="translate(-401 -547)"><path d="M431.224 561.255C431.115 561.255 431.005 561.255 430.896 561.255L429.948 558.703C432.135 557.464 432.901 554.693 431.698 552.505 430.458 550.318 427.688 549.552 425.5 550.755 424.443 551.339 423.641 552.359 423.349 553.526L419.958 553.161C419.703 551.557 418.208 550.427 416.604 550.682 415.146 550.901 414.089 552.141 414.089 553.599 414.089 554.109 414.234 554.62 414.49 555.094L410.406 559.104C409.641 558.521 408.693 558.193 407.708 558.193 405.193 558.193 403.151 560.234 403.151 562.75 403.151 565.266 405.193 567.307 407.708 567.307L408.62 572.776C407.125 573.432 406.432 575.182 407.089 576.677 407.745 578.172 409.495 578.865 410.99 578.208 412.375 577.625 413.068 576.094 412.667 574.635L415.875 572.958C417.953 575.255 421.526 575.438 423.859 573.359 425.026 572.302 425.719 570.771 425.719 569.203 425.719 568.802 425.682 568.365 425.573 567.964L429.109 566.141C430.203 567.38 432.062 567.49 433.302 566.396 434.542 565.302 434.651 563.443 433.557 562.203 432.865 561.62 432.062 561.255 431.224 561.255L431.224 561.255ZM431.224 562.349C431.698 562.349 432.062 562.714 432.062 563.188 432.062 563.661 431.698 564.026 431.224 564.026 430.75 564.026 430.385 563.661 430.385 563.188 430.385 563.188 430.385 563.188 430.385 563.188 430.385 562.714 430.75 562.349 431.224 562.349L431.224 562.349ZM427.724 551.958C428.417 551.958 429 552.542 429 553.234 429 553.927 428.417 554.51 427.724 554.51 427.031 554.51 426.448 553.927 426.448 553.234 426.448 553.234 426.448 553.234 426.448 553.234 426.448 552.542 426.995 551.958 427.724 551.958ZM425.135 556.115C425.135 555.932 425.245 555.714 425.391 555.604 425.755 555.349 426.193 555.13 426.63 555.021 426.958 554.911 427.323 554.875 427.688 554.875 428.052 554.875 428.417 554.948 428.745 555.021 429.182 555.13 429.62 555.349 429.984 555.641 430.13 555.75 430.24 555.969 430.24 556.151L430.24 557.135 425.135 557.135 425.135 556.115ZM417.005 551.74C417.479 551.74 417.844 552.104 417.844 552.578 417.844 553.052 417.479 553.417 417.005 553.417 416.531 553.417 416.167 553.052 416.167 552.578 416.167 552.578 416.167 552.578 416.167 552.578 416.167 552.141 416.531 551.74 417.005 551.74L417.005 551.74ZM415.292 554.474C415.292 554.328 415.365 554.219 415.474 554.146 415.729 553.964 416.021 553.854 416.312 553.781 416.531 553.708 416.786 553.672 417.005 553.672 417.224 553.672 417.479 553.708 417.698 553.781 417.99 553.854 418.245 554 418.5 554.182 418.609 554.255 418.682 554.401 418.682 554.51L418.682 555.167 415.328 555.167 415.328 554.474ZM407.635 559.979C408.328 559.979 408.911 560.562 408.911 561.255 408.911 561.948 408.328 562.531 407.635 562.531 406.943 562.531 406.359 561.948 406.359 561.255 406.359 561.255 406.359 561.255 406.359 561.255 406.396 560.562 406.943 559.979 407.635 559.979L407.635 559.979ZM405.083 565.12 405.083 564.135C405.083 563.953 405.193 563.734 405.339 563.625 405.703 563.37 406.141 563.151 406.578 563.042 406.906 562.932 407.271 562.896 407.635 562.896 408 562.896 408.365 562.969 408.693 563.042 409.13 563.151 409.568 563.37 409.932 563.661 410.078 563.771 410.188 563.99 410.188 564.172L410.188 565.156 405.083 565.12ZM411.391 577.005 408 577.005 408 576.349C408 576.203 408.073 576.094 408.182 576.021 408.438 575.839 408.729 575.693 409.021 575.62 409.24 575.547 409.495 575.51 409.714 575.51 409.932 575.51 410.188 575.547 410.406 575.62 410.698 575.693 410.953 575.839 411.208 576.021 411.318 576.094 411.391 576.24 411.391 576.349L411.391 577.005ZM408.839 574.453C408.839 573.979 409.203 573.615 409.677 573.615 410.151 573.615 410.516 573.979 410.516 574.453 410.516 574.927 410.151 575.292 409.677 575.292 409.24 575.328 408.875 574.927 408.839 574.453L408.839 574.453ZM411.755 573.432C411.281 572.958 410.625 572.667 409.969 572.594L409.057 567.125C409.932 566.833 410.698 566.286 411.245 565.557L414.635 567.344C414.089 568.802 414.198 570.443 414.927 571.828L411.755 573.432ZM415.328 565.995 411.974 564.245C412.12 563.771 412.193 563.297 412.193 562.786 412.193 561.839 411.901 560.927 411.354 560.161L415.438 556.188C416.823 557.026 418.646 556.625 419.484 555.24 419.594 555.057 419.667 554.875 419.74 554.693L423.13 555.057C423.203 556.37 423.859 557.609 424.917 558.411L421.927 563.99C419.557 563.042 416.823 563.88 415.328 565.995L415.328 565.995ZM421.526 567.344C421.526 568.219 420.797 568.911 419.922 568.911 419.047 568.911 418.354 568.219 418.354 567.344 418.354 566.469 419.047 565.776 419.922 565.776 419.922 565.776 419.922 565.776 419.958 565.776 420.833 565.776 421.526 566.469 421.526 567.344L421.526 567.344ZM423.094 572.12 416.786 572.12 416.786 570.917C416.786 570.661 416.896 570.443 417.115 570.297 417.589 569.969 418.099 569.714 418.646 569.531 419.083 569.422 419.521 569.349 419.958 569.349 420.396 569.349 420.833 569.422 421.271 569.531 421.818 569.677 422.365 569.932 422.802 570.297 422.984 570.443 423.13 570.698 423.13 570.917L423.094 572.12ZM428.271 564.245C428.271 564.464 428.307 564.682 428.38 564.901L425.026 566.651C424.625 565.849 424.005 565.193 423.276 564.682L426.266 559.104C426.74 559.286 427.25 559.359 427.76 559.359 428.052 559.359 428.344 559.323 428.635 559.286L429.583 561.839C428.708 562.349 428.234 563.26 428.271 564.245ZM432.901 565.703 429.51 565.703 429.51 565.047C429.51 564.901 429.583 564.792 429.693 564.719 429.948 564.536 430.24 564.391 430.531 564.318 430.75 564.245 431.005 564.208 431.224 564.208 431.443 564.208 431.698 564.245 431.917 564.318 432.208 564.391 432.464 564.536 432.719 564.719 432.828 564.792 432.901 564.938 432.901 565.047L432.901 565.703Z" fill="#00B050"/></g></svg>