<svg width="31" height="31" xmlns="http://www.w3.org/2000/svg" xmlns:xlink="http://www.w3.org/1999/xlink" overflow="hidden"><defs><clipPath id="clip0"><rect x="400" y="181" width="31" height="31"/></clipPath></defs><g clip-path="url(#clip0)" transform="translate(-400 -181)"><path d="M422.54 197.856 420.731 190.171C420.668 189.904 420.534 189.658 420.344 189.46 419.543 188.812 418.621 188.329 417.631 188.04 416.93 187.89 416.217 187.804 415.5 187.781 414.778 187.794 414.062 187.902 413.369 188.104 412.369 188.366 411.441 188.852 410.656 189.525 410.466 189.723 410.332 189.968 410.269 190.235L408.46 197.921C408.433 198.027 408.411 198.135 408.396 198.244 408.396 198.957 408.974 199.535 409.688 199.535 410.265 199.516 410.762 199.124 410.915 198.567L412.271 192.948 412.271 211.031 414.854 211.031 414.854 199.406 416.146 199.406 416.146 211.031 418.729 211.031 418.729 192.883 420.085 198.502C420.238 199.059 420.735 199.452 421.312 199.471 422.026 199.471 422.604 198.893 422.604 198.179 422.589 198.07 422.567 197.963 422.54 197.856ZM409.688 198.867C409.331 198.867 409.042 198.578 409.042 198.221 409.042 197.864 409.331 197.575 409.688 197.575 410.044 197.575 410.333 197.864 410.333 198.221 410.333 198.578 410.044 198.867 409.688 198.867ZM410.908 194.582 410.375 196.907C410.341 197.057 410.206 197.162 410.052 197.159 410.029 197.162 410.005 197.162 409.981 197.159 409.808 197.119 409.699 196.945 409.739 196.772 409.739 196.772 409.739 196.771 409.739 196.771L410.272 194.446C410.312 194.268 410.489 194.156 410.668 194.196 410.846 194.236 410.958 194.413 410.918 194.592ZM411.712 191.078 411.179 193.394C411.146 193.544 411.01 193.649 410.856 193.645L410.782 193.645C410.608 193.605 410.5 193.432 410.54 193.258 410.54 193.258 410.54 193.258 410.54 193.258L411.073 190.939C411.113 190.766 411.286 190.657 411.46 190.697 411.46 190.697 411.46 190.697 411.46 190.697 411.635 190.733 411.748 190.903 411.712 191.078 411.712 191.078 411.712 191.078 411.712 191.078ZM414.208 209.74C414.208 210.096 413.919 210.385 413.562 210.385 413.206 210.385 412.917 210.096 412.917 209.74L412.917 209.362C412.917 209.005 413.206 208.716 413.562 208.716 413.919 208.716 414.208 209.005 414.208 209.362ZM413.562 203.698C413.741 203.698 413.885 203.842 413.885 204.021L413.885 207.802C413.885 207.98 413.741 208.125 413.562 208.125 413.384 208.125 413.24 207.98 413.24 207.802L413.24 204.014C413.243 203.838 413.387 203.698 413.562 203.698ZM413.24 202.849 413.24 198.76C413.24 198.582 413.384 198.438 413.562 198.438 413.741 198.438 413.885 198.582 413.885 198.76L413.885 202.861C413.885 203.04 413.741 203.184 413.562 203.184 413.384 203.184 413.24 203.04 413.24 202.861ZM415.125 197.885 414.996 197.956C414.921 197.987 414.841 198.001 414.761 197.998 414.137 197.998 413.004 197.394 412.758 196.865 412.62 196.593 412.727 196.261 412.999 196.122 413.02 196.111 413.042 196.101 413.065 196.093L413.065 196.093C413.43 195.896 413.876 195.928 414.208 196.177 414.709 196.567 415.044 197.13 415.148 197.756ZM418.083 209.74C418.083 210.096 417.794 210.385 417.438 210.385 417.081 210.385 416.792 210.096 416.792 209.74L416.792 209.362C416.792 209.005 417.081 208.716 417.438 208.716 417.794 208.716 418.083 209.005 418.083 209.362ZM417.438 203.698C417.616 203.698 417.76 203.842 417.76 204.021L417.76 207.802C417.76 207.98 417.616 208.125 417.438 208.125 417.259 208.125 417.115 207.98 417.115 207.802L417.115 204.014C417.118 203.838 417.262 203.698 417.438 203.698ZM417.115 202.849 417.115 198.76C417.115 198.582 417.259 198.438 417.438 198.438 417.616 198.438 417.76 198.582 417.76 198.76L417.76 202.861C417.76 203.04 417.616 203.184 417.438 203.184 417.259 203.184 417.115 203.04 417.115 202.861ZM418.225 196.865C417.98 197.394 416.847 197.998 416.223 197.998 416.143 198.001 416.062 197.987 415.988 197.956L415.865 197.905 415.846 197.756C415.951 197.129 416.289 196.566 416.792 196.177 417.122 195.934 417.562 195.901 417.925 196.093L417.925 196.093C418.213 196.194 418.365 196.509 418.264 196.797 418.256 196.82 418.246 196.843 418.235 196.865ZM415.984 190.042 415.984 190.688 417.438 190.688C417.616 190.688 417.76 190.832 417.76 191.01 417.76 191.189 417.616 191.333 417.438 191.333L415.984 191.333 415.984 191.979 417.438 191.979C417.616 191.979 417.76 192.124 417.76 192.302 417.76 192.48 417.616 192.625 417.438 192.625L415.984 192.625 415.984 193.271 417.438 193.271C417.616 193.271 417.76 193.415 417.76 193.594 417.76 193.772 417.616 193.917 417.438 193.917L415.984 193.917 415.984 196.5C415.984 196.768 415.768 196.984 415.5 196.984 415.232 196.984 415.016 196.768 415.016 196.5L415.016 193.917 413.562 193.917C413.384 193.917 413.24 193.772 413.24 193.594 413.24 193.415 413.384 193.271 413.562 193.271L415.016 193.271 415.016 192.625 413.562 192.625C413.384 192.625 413.24 192.48 413.24 192.302 413.24 192.124 413.384 191.979 413.562 191.979L415.016 191.979 415.016 191.333 413.562 191.333C413.384 191.333 413.24 191.189 413.24 191.01 413.24 190.832 413.384 190.688 413.562 190.688L415.016 190.688 415.016 190.042 411.786 190.042C411.613 189.998 411.508 189.823 411.552 189.65 411.581 189.534 411.671 189.444 411.786 189.415L415.016 189.415 415.016 188.705C415.016 188.437 415.232 188.22 415.5 188.22 415.768 188.22 415.984 188.437 415.984 188.705L415.984 189.396 419.214 189.396C419.387 189.439 419.492 189.615 419.448 189.788 419.419 189.903 419.329 189.993 419.214 190.022ZM419.895 193.4 419.375 191.078C419.335 190.9 419.447 190.723 419.625 190.683 419.804 190.643 419.981 190.755 420.021 190.933L420.55 193.245C420.591 193.419 420.482 193.592 420.309 193.632 420.308 193.632 420.308 193.632 420.308 193.633 420.284 193.636 420.259 193.636 420.234 193.633 420.077 193.645 419.934 193.543 419.895 193.39ZM420.166 194.588C420.126 194.415 420.234 194.241 420.408 194.201 420.408 194.201 420.408 194.201 420.408 194.201 420.582 194.161 420.756 194.269 420.796 194.443 420.796 194.443 420.796 194.443 420.796 194.443L421.332 196.771C421.364 196.942 421.256 197.107 421.086 197.146 421.063 197.149 421.039 197.149 421.015 197.146 420.861 197.15 420.726 197.044 420.693 196.894ZM421.367 198.877C421.011 198.877 420.722 198.588 420.722 198.231 420.722 197.874 421.011 197.585 421.367 197.585 421.724 197.585 422.013 197.874 422.013 198.231 422.008 198.584 421.72 198.867 421.367 198.867Z"/><path d="M415.5 181.83C414.205 181.881 413.194 182.969 413.24 184.265 413.233 184.771 413.405 185.264 413.724 185.656L413.724 185.96C413.72 186.297 413.949 186.593 414.276 186.674L414.276 187.135C414.276 187.314 414.421 187.458 414.599 187.458L416.401 187.458C416.579 187.458 416.724 187.314 416.724 187.135L416.724 186.674C417.051 186.593 417.28 186.297 417.276 185.96L417.276 185.656C417.595 185.264 417.767 184.771 417.76 184.265 417.806 182.969 416.795 181.881 415.5 181.83ZM415.016 187.135 414.693 187.135 414.693 186.49 415.016 186.49ZM414.657 185.198C414.318 185.198 414.044 184.923 414.044 184.584 414.044 184.245 414.318 183.971 414.657 183.971 414.996 183.971 415.271 184.246 415.271 184.584 415.271 184.585 415.271 184.587 415.271 184.588 415.271 184.925 414.997 185.198 414.66 185.198 414.659 185.198 414.658 185.198 414.657 185.198ZM415.661 187.135 415.339 187.135 415.339 186.49 415.661 186.49ZM415.681 185.96 415.319 185.96C415.232 185.96 415.161 185.889 415.161 185.801 415.161 185.773 415.169 185.745 415.184 185.721L415.364 185.421C415.409 185.346 415.507 185.322 415.582 185.367 415.604 185.38 415.622 185.399 415.636 185.421L415.816 185.721C415.861 185.796 415.836 185.893 415.761 185.938 415.737 185.952 415.709 185.96 415.681 185.96ZM416.307 187.135 415.984 187.135 415.984 186.49 416.307 186.49ZM416.343 185.198C416.004 185.2 415.728 184.926 415.726 184.588 415.724 184.249 415.998 183.973 416.336 183.971 416.675 183.969 416.951 184.242 416.953 184.581 416.953 184.583 416.953 184.585 416.953 184.588 416.951 184.924 416.679 185.196 416.343 185.198Z"/></g></svg>