<svg width="37" height="37" xmlns="http://www.w3.org/2000/svg" xmlns:xlink="http://www.w3.org/1999/xlink" overflow="hidden"><defs><clipPath id="clip0"><rect x="396" y="385" width="37" height="37"/></clipPath></defs><g clip-path="url(#clip0)" transform="translate(-396 -385)"><path d="M431.458 397.911C431.458 397.064 430.765 396.37 429.917 396.37 429.608 396.37 429.339 396.447 429.107 396.601L422.517 400.378C422.594 400.802 422.594 401.226 422.517 401.689 422.208 403.115 420.859 404.117 419.395 404.117L412.573 404.117 412.573 402.575 419.51 402.575C420.358 402.575 421.052 401.881 421.052 401.033 421.052 400.185 420.358 399.492 419.51 399.492 419.51 399.492 410.337 399.492 410.26 399.492 409.605 399.492 408.989 399.684 408.449 399.993L397.542 405.234 402.938 410.63C405.443 408.125 408.68 407.161 412.188 407.161L419.395 407.161C419.742 407.161 420.05 407.046 420.32 406.853L430.919 399.106C431.227 398.798 431.458 398.374 431.458 397.911Z" fill="#2F5597"/></g></svg>