<svg width="37" height="37" xmlns="http://www.w3.org/2000/svg" xmlns:xlink="http://www.w3.org/1999/xlink" overflow="hidden"><defs><clipPath id="clip0"><rect x="396" y="437" width="37" height="37"/></clipPath></defs><g clip-path="url(#clip0)" transform="translate(-396 -437)"><path d="M414.608 467.833C416.298 466.499 417.91 465.069 419.437 463.551 421.651 461.443 423.608 459.08 425.269 456.514 426.81 454.032 428.283 450.809 427.269 447.865 426.448 445.429 424.17 443.359 421.553 443.109 418.246 442.781 415.853 445.579 414.5 448.258 413.263 445.807 411.216 443.278 408.26 443.093 405.635 442.932 403.192 444.778 402.063 447.071 400.648 449.95 401.801 453.188 403.288 455.774 404.83 458.472 406.88 460.842 409.046 463.035 410.754 464.782 412.576 466.413 414.5 467.918ZM408.333 454.729 409.49 451.26 410.176 449.198C410.353 448.663 410.627 447.946 411.367 448.254 411.814 448.443 411.841 448.906 411.918 449.31L412.238 451.018 413.163 455.951 413.775 459.227 416.011 453.315 416.504 452.012C416.647 451.627 416.793 451.241 417.275 451.199 417.888 451.137 418.069 451.661 418.204 452.124L418.678 453.75 419.618 456.984 420.547 455.962C420.844 455.574 421.179 455.215 421.545 454.891 421.931 454.621 422.644 454.745 423.087 454.745L424.521 454.745C424.236 455.257 423.92 455.774 423.577 456.286L422.324 456.286C421.503 457.192 420.717 458.156 419.846 459.015 419.573 459.341 419.086 459.385 418.76 459.111 418.696 459.058 418.641 458.994 418.597 458.922 418.513 458.757 418.452 458.58 418.416 458.398L417.772 456.198 417.248 454.394C416.265 456.988 415.321 459.585 414.307 462.168 414.251 462.378 414.128 462.565 413.957 462.7 413.606 462.941 413.126 462.852 412.885 462.501 412.823 462.411 412.781 462.309 412.762 462.202 412.673 461.848 412.627 461.478 412.557 461.123L411.582 455.92 410.854 452.031 409.767 455.296C409.601 455.781 409.47 456.255 408.846 456.286 408.279 456.313 407.709 456.286 407.146 456.286L405.412 456.286C405.073 455.774 404.753 455.257 404.468 454.745Z" fill="#FF0000"/></g></svg>