<svg width="37" height="37" xmlns="http://www.w3.org/2000/svg" xmlns:xlink="http://www.w3.org/1999/xlink" overflow="hidden"><defs><clipPath id="clip0"><rect x="397" y="281" width="37" height="37"/></clipPath></defs><g clip-path="url(#clip0)" transform="translate(-397 -281)"><path d="M425.933 287.81C424.093 286.769 421.759 287.374 420.657 289.179 418.464 292.536 420.981 295.045 421.555 297.188L418.583 297.188C417.306 297.188 416.271 298.223 416.271 299.5L416.271 312.219 417.812 312.219 417.812 299.5C417.812 299.074 418.158 298.729 418.583 298.729L421.555 298.729C420.981 300.872 418.472 303.381 420.657 306.738 421.759 308.543 424.093 309.148 425.933 308.106 428.99 306.299 430.917 302.41 430.917 297.958 430.917 293.507 428.99 289.618 425.933 287.81Z" fill="#7030A0"/><path d="M412.417 297.188 409.445 297.188C410.019 295.045 412.528 292.536 410.343 289.179 409.241 287.374 406.907 286.769 405.067 287.81 402.01 289.618 400.083 293.507 400.083 297.958 400.083 302.41 402.01 306.299 405.067 308.106 406.907 309.148 409.241 308.543 410.343 306.738 412.536 303.381 410.019 300.872 409.445 298.729L412.417 298.729C412.842 298.729 413.188 299.074 413.188 299.5L413.188 312.219 414.729 312.219 414.729 299.5C414.729 298.223 413.694 297.188 412.417 297.188Z" fill="#7030A0"/></g></svg>