<svg width="36" height="37" xmlns="http://www.w3.org/2000/svg" xmlns:xlink="http://www.w3.org/1999/xlink" overflow="hidden"><defs><clipPath id="clip0"><rect x="397" y="489" width="36" height="37"/></clipPath></defs><g clip-path="url(#clip0)" transform="translate(-397 -489)"><path d="M23.4562 7.125C22.5187 6.75 21.6788 6.6375 21.3488 7.2975 20.9175 8.16 21.0563 11.1038 20.7562 11.6363 20.6347 11.9322 20.3194 12.0993 20.0062 12.0338 19.5 12 19.5 10.875 19.5 10.875L19.5 3.375 18.75 3.375 18.75 4.125 17.25 4.125 17.25 3.375 16.5 3.375 16.5 10.875C16.5 10.875 16.5 12 15.9975 12.0487 15.6844 12.1143 15.369 11.9472 15.2475 11.6512 14.9475 11.1187 15.0863 8.175 14.655 7.3125 14.3212 6.6525 13.5 6.75 12.5438 7.125 6.96375 9.56625 3 15.6788 3 22.845 2.98521 26.0258 3.79807 29.1558 5.35875 31.9275 5.4375 32.0363 5.85 32.5537 6.23625 32.5537 9.0675 32.5537 13.86 29.6775 14.7225 27.0863 15.585 24.495 15.1987 19.3575 16.1588 17.8837 16.5642 17.215 17.2326 16.7481 18 16.5975 18.7674 16.7481 19.4358 17.215 19.8412 17.8837 20.8013 19.3575 20.415 24.4988 21.2775 27.0863 22.14 29.6737 26.9325 32.5537 29.7638 32.5537 30.1388 32.5537 30.5625 32.0363 30.6413 31.9275 32.2019 29.1558 33.0148 26.0258 33 22.845 33 15.6788 29.0363 9.56625 23.4562 7.125ZM17.25 4.875 18.75 4.875 18.75 5.625 17.25 5.625ZM17.25 6.375 18.75 6.375 18.75 7.125 17.25 7.125ZM17.25 7.875 18.75 7.875 18.75 8.625 17.25 8.625ZM17.25 9.375 18.75 9.375 18.75 10.125 17.25 10.125ZM28.125 20.3363C28.2969 21.0275 28.5072 21.7085 28.755 22.3762 28.9742 22.7915 29.2972 23.1429 29.6925 23.3962 30.0259 23.642 30.097 24.1115 29.8513 24.4449 29.7105 24.6361 29.4874 24.7492 29.25 24.75 28.8187 24.75 28.4212 24.3113 28.125 24.0337 27.7194 23.6483 27.4121 23.1712 27.2288 22.6425 26.9775 21.8925 26.7863 21.1425 26.5462 20.415 26.3289 20.8395 26.194 21.3015 26.1488 21.7762 26.1488 22.0275 26.175 22.2675 26.1787 22.5262 26.1962 22.9401 25.8749 23.2897 25.4611 23.3072 25.145 23.3206 24.8545 23.1342 24.735 22.8412 24.51 22.2938 24.6375 21.4988 24.7612 20.9662 24.9799 20.1643 25.3296 19.4041 25.7962 18.7162 25.2361 17.7528 24.4481 16.9416 23.5012 16.3538 23.6697 17.0466 23.7266 17.7618 23.67 18.4725 23.6726 18.8432 23.6336 19.213 23.5538 19.575 23.4561 19.9775 23.0506 20.2247 22.6481 20.1271 22.5357 20.0998 22.4311 20.0469 22.3425 19.9725 22.0163 19.6987 22.0875 19.335 22.1287 18.9675 22.26 17.7638 22.2188 16.4475 21.3787 15.48 21.167 15.2968 20.9063 15.1795 20.6287 15.1425 20.2913 15.045 19.95 14.9513 19.6125 14.85 19.0027 14.6929 18.446 14.3757 18 13.9313 17.5445 14.373 16.9784 14.6839 16.3612 14.8312 16.0238 14.9325 15.6825 15.0262 15.345 15.1238 15.0075 15.2213 14.7525 15.2438 14.5687 15.4988 14.1935 15.9811 13.9447 16.5496 13.845 17.1525 13.7756 17.748 13.7756 18.3495 13.845 18.945 13.8862 19.32 13.9575 19.6763 13.6312 19.95 13.3113 20.213 12.8386 20.1669 12.5756 19.8469 12.4935 19.7469 12.4386 19.6274 12.4163 19.5 12.1877 18.4522 12.2095 17.3653 12.48 16.3275 11.5354 16.9136 10.7487 17.7222 10.1888 18.6825 10.6698 19.3606 11.0173 20.1243 11.2125 20.9325 11.2874 21.3368 11.3214 21.7476 11.3138 22.1588 11.3351 22.3895 11.3135 22.6221 11.25 22.845 11.0911 23.2275 10.6522 23.4088 10.2697 23.2499 10.0107 23.1424 9.83344 22.8994 9.81 22.62 9.78 22.3162 9.81 22.0012 9.81 21.6975 9.77239 21.2456 9.64489 20.8057 9.435 20.4037 9.07875 21.4913 8.925 22.8075 8.16375 23.7038 7.75875 24.1875 6.79875 25.2825 6.1575 24.48 5.51625 23.6775 6.9075 23.055 7.21875 22.4587 7.4154 21.9981 7.56735 21.5197 7.6725 21.03 7.875 20.4412 8.02875 19.875 8.25 19.2825 8.65928 18.1926 9.28425 17.1965 10.0875 16.3538 9.08239 16.1522 8.04784 16.5196 7.395 17.31 7.0875 17.6512 6.61875 17.8162 6.24 17.4525 5.94986 17.1784 5.92515 16.7252 6.18375 16.4212 7.37625 14.7638 9.6675 14.445 11.4525 15.2137L11.6812 15.0637C11.0304 14.3683 10.5976 13.4974 10.4362 12.5588 10.3463 12.0563 10.23 11.37 10.8112 11.1225 11.1586 10.9745 11.5618 11.1079 11.7525 11.4338 11.8432 11.6589 11.8878 11.8998 11.8837 12.1425 12.0049 12.9926 12.4251 13.7717 13.0687 14.34 13.69 14.079 14.3261 13.8548 14.9738 13.6688 15.5144 13.552 16.0429 13.3851 16.5525 13.17 16.8877 12.9852 17.1378 12.6772 17.25 12.3113L17.25 10.875 18.75 10.875 18.75 12.3075C18.8729 12.6884 19.143 13.0043 19.5 13.185 20.0004 13.3895 20.5173 13.5513 21.045 13.6688 21.6927 13.8548 22.3287 14.079 22.95 14.34 23.608 13.7606 24.031 12.9601 24.1388 12.09 24.1353 11.8611 24.1787 11.634 24.2663 11.4225 24.4581 11.098 24.8611 10.9664 25.2075 11.115 25.8075 11.37 25.6725 12.09 25.5825 12.5963 25.4129 13.5163 24.9835 14.3686 24.345 15.0525L24.5737 15.2025C26.3812 14.4225 28.6087 14.7675 29.8237 16.3988 30.0628 16.6768 30.0723 17.085 29.8462 17.3738 29.4712 17.8162 28.9538 17.6663 28.6275 17.3025 27.9738 16.5108 26.9382 16.142 25.9313 16.3425 26.9698 17.4803 27.7219 18.8495 28.125 20.3363Z" fill="#767171" transform="matrix(1 0 0 1.02778 397 489)"/></g></svg>