<svg width="27" height="27" xmlns="http://www.w3.org/2000/svg" xmlns:xlink="http://www.w3.org/1999/xlink" overflow="hidden"><defs><clipPath id="clip0"><rect x="402" y="232" width="27" height="27"/></clipPath></defs><g clip-path="url(#clip0)" transform="translate(-402 -232)"><path d="M417.047 254.359C418.875 252.109 420.9 249.269 421.097 246.062L424.472 246.062C424.219 250.253 421.097 253.656 417.047 254.359ZM406.528 246.062 409.903 246.062C410.128 249.269 412.125 252.109 413.953 254.359 409.903 253.656 406.781 250.253 406.528 246.062ZM413.953 236.641C412.125 238.891 410.1 241.731 409.903 244.938L406.528 244.938C406.781 240.747 409.903 237.344 413.953 236.641ZM416.062 246.062 419.972 246.062C419.747 248.959 417.862 251.575 416.062 253.797L416.062 246.062ZM414.938 246.062 414.938 253.797C413.138 251.575 411.253 248.959 411.028 246.062L414.938 246.062ZM416.062 237.203C417.862 239.425 419.747 242.012 419.972 244.938L416.062 244.938 416.062 237.203ZM414.938 244.938 411.028 244.938C411.253 242.041 413.138 239.425 414.938 237.203L414.938 244.938ZM424.472 244.938 421.097 244.938C420.9 241.731 418.875 238.891 417.047 236.641 421.097 237.344 424.219 240.747 424.472 244.938ZM415.5 234.812C409.594 234.812 404.812 239.594 404.812 245.5 404.812 251.406 409.594 256.188 415.5 256.188 421.406 256.188 426.188 251.406 426.188 245.5 426.188 239.594 421.406 234.812 415.5 234.812Z" fill="#CC6600"/></g></svg>