<svg width="37" height="36" xmlns="http://www.w3.org/2000/svg" xmlns:xlink="http://www.w3.org/1999/xlink" overflow="hidden"><defs><clipPath id="clip0"><rect x="396" y="340" width="37" height="36"/></clipPath></defs><g clip-path="url(#clip0)" transform="translate(-396 -340)"><path d="M17.6625 7.3875C16.8 7.3875 16.0875 8.1 16.0875 8.9625 16.0875 9.825 16.8 10.5375 17.6625 10.5375 18.525 10.5375 19.2375 9.825 19.2375 8.9625 19.2375 8.1 18.525 7.3875 17.6625 7.3875Z" fill="#3B3838" transform="matrix(1.02778 0 0 1 396 340)"/><path d="M14.5125 16.575C14.5125 17.4448 13.8073 18.15 12.9375 18.15 12.0677 18.15 11.3625 17.4448 11.3625 16.575 11.3625 15.7052 12.0677 15 12.9375 15 13.8073 15 14.5125 15.7052 14.5125 16.575Z" fill="#3B3838" transform="matrix(1.02778 0 0 1 396 340)"/><path d="M22.125 9.4875 21.1875 9.9375C21.1125 10.2375 20.9625 10.5 20.8125 10.7625L21.15 11.7375 20.4 12.4875 19.425 12.15C19.1625 12.3 18.9 12.4125 18.6 12.4875L18.15 13.3875 17.1 13.3875 16.65 12.45C16.35 12.375 16.0875 12.2625 15.825 12.1125L14.85 12.45 14.1 11.7 14.4375 10.725C14.2875 10.4625 14.175 10.2 14.1 9.9L13.1625 9.45 13.1625 8.4 14.1 7.95C14.175 7.65 14.2875 7.3875 14.4375 7.125L14.1375 6.15 14.8875 5.4 15.8625 5.7375C16.125 5.5875 16.3875 5.475 16.6875 5.4L17.1375 4.4625 18.1875 4.4625 18.6375 5.3625C18.9375 5.4375 19.2 5.55 19.4625 5.7L20.4375 5.3625 21.1875 6.1125 20.85 7.0875C21 7.35 21.1125 7.6125 21.1875 7.9125L22.125 8.3625 22.125 9.4875ZM17.4 17.1 16.4625 17.55C16.3875 17.85 16.275 18.1125 16.125 18.375L16.425 19.35 15.675 20.1 14.7 19.7625C14.4375 19.9125 14.175 20.025 13.875 20.1L13.4625 21 12.4125 21 11.9625 20.0625C11.6625 19.9875 11.4 19.875 11.1375 19.725L10.1625 20.025 9.4125 19.275 9.75 18.3C9.6 18.0375 9.4875 17.775 9.4125 17.475L8.475 17.025 8.475 15.975 9.4125 15.525C9.4875 15.225 9.6 14.9625 9.75 14.7L9.4125 13.725 10.1625 12.975 11.1375 13.3125C11.4 13.1625 11.6625 13.05 11.9625 12.975L12.4125 12.0375 13.5 12.0375 13.95 12.975C14.25 13.05 14.5125 13.1625 14.775 13.3125L15.75 12.975 16.5 13.725 16.1625 14.7C16.3125 14.9625 16.425 15.225 16.5 15.525L17.4375 15.975 17.4 17.1 17.4 17.1ZM30.375 18.4875 27.7875 13.9875 27.7875 13.8C27.9375 9.675 25.8375 5.8125 22.275 3.675 18.7125 1.575 14.325 1.575 10.7625 3.675 7.2 5.775 5.1 9.675 5.25 13.8 5.25 17.3625 6.8625 20.7 9.675 22.875L9.675 32.3625 21.525 32.3625 21.525 27.8625 23.3625 27.8625C24.5625 27.8625 25.6875 27.375 26.5125 26.55 27.3375 25.6875 27.7875 24.5625 27.7875 23.3625L27.7875 21.1125 29.4375 21.1125C30.4125 21 31.275 19.875 30.375 18.4875Z" fill="#3B3838" transform="matrix(1.02778 0 0 1 396 340)"/></g></svg>